<svg xmlns="http://www.w3.org/2000/svg" viewBox="0 0 64 64" fill="none">
  <circle cx="32" cy="32" r="20" fill="#FFD166"/>
  <path d="M19.5 31.5C19.5 24.6 25 19 32 19s12.5 5.6 12.5 12.5v4.8c0 1.9-1.5 3.4-3.4 3.4h-1.4v-5.1c0-4.9-3.9-8.8-8.8-8.8s-8.8 4-8.8 8.8v5.1h-1.4c-1.9 0-3.4-1.5-3.4-3.4v-4.8Z" fill="#1B2A41"/>
  <path d="M18 31.8c0-1.8 1.5-3.3 3.3-3.3h1v7.7h-1c-1.8 0-3.3-1.5-3.3-3.3v-1.1Z" fill="#FF9800"/>
  <path d="M41.7 28.5h1c1.8 0 3.3 1.5 3.3 3.3v1.1c0 1.8-1.5 3.3-3.3 3.3h-1v-7.7Z" fill="#FF9800"/>
  <circle cx="26" cy="31" r="2" fill="#FFFFFF"/>
  <circle cx="38" cy="31" r="2" fill="#FFFFFF"/>
  <path d="M25.5 39.5c1.6 2 3.7 3 6.5 3s4.9-1 6.5-3" stroke="#1B2A41" stroke-width="2.5" stroke-linecap="round"/>
  <path d="M24 42.5h16c0 2.5-3.6 5-8 5s-8-2.5-8-5Z" fill="#FF9800"/>
</svg>